<?xml version="1.0" standalone="no"?>
<!DOCTYPE svg PUBLIC "-//W3C//DTD SVG 20010904//EN"
 "http://www.w3.org/TR/2001/REC-SVG-20010904/DTD/svg10.dtd">
<svg version="1.0" xmlns="http://www.w3.org/2000/svg"
 width="700.000000pt" height="700.000000pt" viewBox="0 0 700.000000 700.000000"
 preserveAspectRatio="xMidYMid meet">
<metadata>
Created by potrace 1.14, written by Peter Selinger 2001-2017
</metadata>
<g transform="translate(0.000000,700.000000) scale(0.100000,-0.100000)"
fill="#000000" stroke="none">
<path d="M3277 6994 c-1 -1 -40 -5 -87 -8 -47 -4 -92 -9 -100 -11 -8 -2 -42
-6 -74 -10 -220 -24 -543 -109 -811 -215 -128 -51 -378 -169 -383 -182 -2 -4
-8 -8 -12 -8 -18 0 -350 -206 -370 -229 -3 -4 -40 -33 -83 -65 -211 -160 -444
-392 -619 -618 -71 -91 -248 -350 -248 -363 0 -3 -12 -24 -27 -48 -42 -66
-157 -302 -201 -412 -77 -191 -139 -383 -167 -515 -2 -8 -8 -35 -14 -60 -5
-25 -12 -61 -16 -80 -3 -19 -8 -46 -10 -60 -11 -53 -13 -68 -20 -125 -4 -33
-9 -69 -11 -80 -25 -135 -25 -674 0 -813 2 -9 7 -43 11 -76 27 -225 134 -634
210 -801 7 -16 23 -55 35 -85 27 -68 138 -290 192 -385 98 -169 314 -468 412
-571 280 -291 425 -418 666 -578 327 -218 654 -368 1027 -470 144 -40 313 -76
428 -91 22 -2 56 -7 75 -10 197 -27 662 -27 850 1 355 53 633 127 930 249 90
37 350 167 396 199 21 14 42 26 47 26 4 0 13 5 20 10 7 6 64 44 127 86 116 77
281 202 355 270 162 147 336 329 425 444 19 25 38 50 43 55 83 102 241 347
321 500 141 269 281 655 331 914 43 226 64 397 71 581 l5 140 -876 0 -875 0
-1 -42 c-5 -174 -51 -431 -99 -543 -5 -11 -25 -60 -46 -110 -31 -74 -77 -162
-139 -263 -73 -121 -291 -355 -405 -435 -153 -106 -318 -201 -390 -222 -14 -4
-29 -11 -35 -15 -11 -8 -112 -41 -195 -63 -51 -15 -112 -27 -220 -44 -61 -10
-372 -10 -440 1 -354 52 -644 180 -910 401 -261 218 -460 528 -555 865 -46
163 -64 315 -60 505 2 94 6 184 9 200 4 17 13 67 22 113 33 182 116 390 225
567 139 225 311 403 530 547 68 45 196 117 219 123 6 2 72 30 115 50 128 57
398 110 583 114 l42 1 0 875 0 875 -111 -3 c-61 -1 -111 -3 -112 -3z"/>
</g>
</svg>
